<?xml version="1.0" encoding="utf-8" ?>
<svg baseProfile="full" height="200mm" version="1.1" viewBox="0,0,200,200" width="200mm" xmlns="http://www.w3.org/2000/svg" xmlns:ev="http://www.w3.org/2001/xml-events" xmlns:xlink="http://www.w3.org/1999/xlink"><defs /><rect fill="#1a1a1a" height="200" width="200" x="0" y="0" /><rect fill="#1a1a1a" height="200" width="180" x="10" y="0" /><text alignment-baseline="middle" fill="#e1ed5e" style="dominant-baseline: central; font-size:9.0px; font-family:Arial;" text-anchor="middle" x="100.0" y="100.0">2024</text><line stroke="#e1ed5e" stroke-width="0.3" x1="100.0" x2="100.0" y1="15.0" y2="10.0" /><path d="M 100.0 14.0 a86.0,86.0 0 0,1 42.35913384403234,11.155469271406648" fill="none" id="id25" stroke="none" /><text fill="#e1ed5e" style="font-size:6.75px; font-family:Arial;" text-anchor="middle"><textPath startOffset="22.145653131862478" xlink:href="#id25">January</textPath></text><path d="M 100.0 79.0 l 0.0 -12.73754343976396 a33.73754343976396,33.73754343976396 0 0,0 0.5791497958007525,0.00497130445260357 l -0.21865687095189776 12.735666533505793" fill="#ff9d0e" stroke="none" /><path d="M 100.72087961077811 79.0123766808444 l 0.6159099282145335 -17.931545543287076 a38.94212001438659,38.94212001438659 0 0,0 0.6679023074653638,0.028682598889314508 l -0.9236379962807336 17.91833037597193" fill="#ffe015" stroke="none" /><path d="M 101.08105385017728 79.02784411241856 l 0.9237224660712734 -17.919969067342116 a38.943760881398944,38.943760881398944 0 0,0 0.6673396334463946,0.04014549519763936 l -1.2312064516501302 17.901471594319784" fill="#ffe015" stroke="none" /><path d="M 101.80034050326958 79.07731436759882 l 3.3271683468615274 -38.66673956456328 a59.80962248930181,59.80962248930181 0 0,0 1.0221761726279985,0.09680114630043112 l -3.990444082874539 38.603926662757665" fill="#34ff2f" stroke="none" /><path d="M 102.15924093988457 79.11130261209362 l 1.538110944540169 -14.879828126658266 a35.95911328777895,35.95911328777895 0 0,0 0.6134694905371875,0.06874053598959831 l -1.7933163366781533 14.851231830161696" fill="#ffba11" stroke="none" /><path d="M 103.58742460773223 79.30868818359171 l 2.857188519704211 -16.47950411335156 a37.72535745684081,37.72535745684081 0 0,0 0.6371368549672471,0.11610755912036104 l -3.139660108222512 16.428028380299832" fill="#ffd113" stroke="none" /><path d="M 103.94208987418118 79.37332000966035 l 3.365604860389658 -17.61026679880275 a38.92899307828783,38.92899307828783 0 0,0 0.6553112318055143,0.13108059942252917 l -3.667412577726129 17.549896802717363" fill="#ffe015" stroke="none" /><path d="M 104.29559338865022 79.4440306129975 l 7.941548224450783 -38.00318312681604 a59.82409195295613,59.82409195295613 0 0,0 1.0034425513078082,0.21869563370013195 l -8.592753192377726 37.86125603498219" fill="#34ff2f" stroke="none" /><path d="M 105.69591212413111 79.78721728523813 l 5.271951830817644 -18.708297199241553 a40.43692002868795,40.43692002868795 0 0,0 0.6665159522883856,0.1940130798035809 l -5.592327795487633 18.615040425135454" fill="#fff316" stroke="none" /><path d="M 106.04205211174951 79.88797359093562 l 5.171596445777576 -17.21456259740619 a38.974609181231045,38.974609181231045 0 0,0 0.639108178653537,0.19799734744552971 l -5.466345257302743 17.123248662154012" fill="#ffe115" stroke="none" /><path d="M 106.72888874123014 80.10723608172694 l 12.072503743129479 -35.6902121732271 a58.67673807003259,58.67673807003259 0 0,0 0.951385268003449,0.3309411823227105 l -12.683394783177945 35.477712558335796" fill="#40ff2d" stroke="none" /><path d="M 107.06938296918511 80.22567764915836 l 6.087636605219581 -17.028203042771544 a39.08366716966068,39.08366716966068 0 0,0 0.6298255696834621,0.23128067318092485 l -6.379051326557168 16.921191520581896" fill="#ffe215" stroke="none" /><path d="M 108.07796709384702 80.6158196554323 l 6.899240027585807 -16.555664486062355 a38.935705716065605,38.935705716065605 0 0,0 0.6147483018539787,0.2623994948678393 l -7.182423404610216 16.434790341535113" fill="#ffe015" stroke="none" /><path d="M 108.73861861582097 80.90454125486305 l 6.29703519530136 -13.760158335649708 a36.13256784795674,36.13256784795674 0 0,0 0.5617948190076886,0.2629483419789584 l -6.532318728180554 13.650033762100216" fill="#ffbc11" stroke="none" /><path d="M 110.02825361518725 81.54914285379988 l 7.246517641398648 -13.332776267881497 a36.17481271503823,36.17481271503823 0 0,0 0.5430628547990668,0.30122781115384256 l -7.474324684353816 13.20641554129451" fill="#ffbd11" stroke="none" /><line stroke="#e1ed5e" stroke-width="0.3" x1="143.13028292997686" x2="145.6673583964461" y1="26.7553504044142" y2="22.446841604673864" /><path d="M 143.63769802327073 25.89364864446614 a86.0,86.0 0 0,1 29.32050498858742,28.57503671076993" fill="none" id="id26" stroke="none" /><text fill="#e1ed5e" style="font-size:6.75px; font-family:Arial;" text-anchor="middle"><textPath startOffset="20.669276256404974" xlink:href="#id26">February</textPath></text><path d="M 112.16784306229584 82.88440491214696 l 10.428204262741291 -14.668575255344086 a38.9976260703224,38.9976260703224 0 0,0 0.5422879696604456,0.39257466997844886 l -10.678473242775704 14.487399813992562" fill="#ffe115" stroke="none" /><path d="M 112.7482090630111 83.31218511350987 l 15.885189909852077 -20.79422351344297 a47.16751784176502,47.16751784176502 0 0,0 0.6392098340003273,0.4970534331447707 l -16.23980968848763 20.518469028677405" fill="#bbff1f" stroke="none" /><path d="M 113.59037401385872 83.9905735841838 l 9.665137013209934 -11.385507098919966 a35.93467928626784,35.93467928626784 0 0,0 0.4668437094016363,0.40324847722892876 l -9.859160202374431 11.217914489226319" fill="#ffba11" stroke="none" /><path d="M 115.41159269507618 85.73525988315684 l 7.296856335512156 -6.753861288410262 a30.942773993418065,30.942773993418065 0 0,0 0.35746610062539913,0.3929178634312326 l -7.411720136979432 6.627605849421357" fill="#ff780b" stroke="none" /><path d="M 116.7966241395341 87.39550010848427 l 14.365224587126402 -10.779932339133486 a38.96013971757672,38.96013971757672 0 0,0 0.396833104872459,0.5383803207639942 l -14.548159711582688 10.531745709100617" fill="#ffe115" stroke="none" /><line stroke="#e1ed5e" stroke-width="0.3" x1="172.87174338648825" x2="177.1583165268699" y1="56.24261187166439" y2="53.66864786411523" /><path d="M 173.72905801456457 55.72781907015455 a86.0,86.0 0 0,1 12.242430191666344,42.057860355516425" fill="none" id="id27" stroke="none" /><text fill="#e1ed5e" style="font-size:6.75px; font-family:Arial;" text-anchor="middle"><textPath startOffset="22.145653131862474" xlink:href="#id27">March</textPath></text><path d="M 118.00360718960297 89.18935116829356 l 12.996877111133196 -7.8042512746248605 a36.15998524403575,36.15998524403575 0 0,0 0.3149815210692289,0.5349074843134259 l -13.128932342332194 7.579992622017878" fill="#ffbd11" stroke="none" /><path d="M 119.0197475246899 91.09779779509293 l 13.608218443799558 -6.369333350928626 a36.025046307729575,36.025046307729575 0 0,0 0.25734840954645744,0.5623527188523793 l -13.715551318201065 6.134791649861563" fill="#ffbb11" stroke="none" /><path d="M 119.16976305983485 91.42560881287824 l 13.670125350142131 -6.114473192143788 a35.975283286336975,35.975283286336975 0 0,0 0.24731485673277329,0.5659047914302875 l -13.773074088891875 5.878906330937651" fill="#ffba11" stroke="none" /><path d="M 119.94978838288452 93.4421083053983 l 15.813304725860759 -5.198147355532687 a37.64576048976921,37.64576048976921 0 0,0 0.19653826909891187,0.6156533286868592 l -15.900207710736927 4.9259249931544415" fill="#ffd013" stroke="none" /><path d="M 120.77682067341334 96.94652285012252 l 7.401579745327181 -1.0877773351662474 a28.481085633605524,28.481085633605524 0 0,0 0.06693798811804721,0.4843299369007193 l -7.419162250000441 0.9605590900654425" fill="#ff5607" stroke="none" /><path d="M 120.98066250479742 99.09900007780936 l 14.94259624547318 -0.6416993768151511 a35.95636856477648,35.95636856477648 0 0,0 0.021189110259323782,0.6168978258529796 l -14.951410042729352 0.3850952863980515" fill="#ffba11" stroke="none" /><line stroke="#e1ed5e" stroke-width="0.3" x1="184.99686870605535" x2="189.99668451229388" y1="99.2704041080226" y2="99.22748670261217" /><path d="M 185.99683186730306 99.26182062694052 a86.0,86.0 0 0,1 -10.086455211305974,41.156179273409016" fill="none" id="id28" stroke="none" /><text fill="#e1ed5e" style="font-size:6.75px; font-family:Arial;" text-anchor="middle"><textPath startOffset="21.40746469413373" xlink:href="#id28">April</textPath></text><path d="M 120.99303781780057 100.54070618675476 l 15.210402134237805 0.3917660039671078 a36.21544654905305,36.21544654905305 0 0,0 -0.021341785075882476,0.6213427865541481 l -15.201435662165077 -0.6528150550853665" fill="#ffbe11" stroke="none" /><path d="M 120.65975698304385 103.76489593502545 l 17.66129738540823 3.2184767123917295 a38.952159137107586,38.952159137107586 0 0,0 -0.1255255729725447,0.6568028398506637 l -17.603445520153524 -3.5211821172757074" fill="#ffe015" stroke="none" /><path d="M 120.35273937422433 105.17358676015961 l 14.727552572637245 3.7436862723180484 a36.19592023160613,36.19592023160613 0 0,0 -0.15824601091496793,0.6008858788049893 l -14.661117080917547 -3.9959526554958407" fill="#ffbd11" stroke="none" /><path d="M 119.31412917781788 108.2440532568976 l 13.74840652717879 5.8683772156662215 a35.94846256917155,35.94846256917155 0 0,0 -0.24713047564617682,0.5654828914209833 l -13.645642169515648 -6.103522176863049" fill="#ffba11" stroke="none" /><line stroke="#e1ed5e" stroke-width="0.3" x1="174.33088141563837" x2="178.70328620479359" y1="141.23008692659167" y2="143.65538615756765" /><path d="M 175.20536237346943 141.71514677278685 a86.0,86.0 0 0,1 -30.301960400862466,31.631185727798858" fill="none" id="id29" stroke="none" /><text fill="#e1ed5e" style="font-size:6.75px; font-family:Arial;" text-anchor="middle"><textPath startOffset="22.145653131862474" xlink:href="#id29">May</textPath></text><path d="M 118.18653347947321 110.5 l 12.955140065512472 7.479653604212928 a35.95930720842586,35.95930720842586 0 0,0 -0.31323345971149175,0.531938893965278 l -12.824832895671214 -7.700943666471756" fill="#ffba11" stroke="none" /><path d="M 117.21940702142032 112.02048342749411 l 12.747836910668326 8.898980210553555 a36.5466779309543,36.5466779309543 0 0,0 -0.3635261532697453,0.5113450602013123 l -12.59319565886862 -9.11650249746437" fill="#ffc212" stroke="none" /><path d="M 116.57777611688842 112.89097897827486 l 12.11034454396985 9.41707716615508 a36.340853539714786,36.340853539714786 0 0,0 -0.38717470837964896,0.48918259603785097 l -11.946903404948639 -9.623579706107613" fill="#ffbf11" stroke="none" /><path d="M 115.16444852881244 114.52719865689866 l 10.852743687934893 10.39668295404738 a36.02907389039624,36.02907389039624 0 0,0 -0.431685263482692,0.4429471097292893 l -10.672671623301394 -10.581452755844406" fill="#ffbb11" stroke="none" /><path d="M 114.91283532996324 114.78537596483092 l 10.716781144886115 10.625185275236515 a36.091188165299954,36.091188165299954 0 0,0 -0.4399826563060275,0.43622214337866083 l -10.532806568450123 -10.807587428843837" fill="#ffbc11" stroke="none" /><path d="M 113.86319453409587 115.77377054828091 l 10.002785570613968 11.381333793337703 a36.152243335132056,36.152243335132056 0 0,0 -0.46967018259193166,0.4056899174517702 l -9.80593590825918 -11.55136784325419" fill="#ffbd11" stroke="none" /><path d="M 113.59037401385872 116.0094264158162 l 8.336964673226042 9.820923422060787 a33.88237232906273,33.88237232906273 0 0,0 -0.4466433466746369,0.3726057652170775 l -8.16714699238951 -9.962591371189735" fill="#ff9f0e" stroke="none" /><path d="M 113.31354834802062 116.24036423190432 l 9.518085150300644 11.610516264369437 a36.01326189918636,36.01326189918636 0 0,0 -0.48146169215195744,0.38783145831266697 l -9.317372687793434 -11.772196016475506" fill="#ffbb11" stroke="none" /><path d="M 112.16784306229584 117.11559508785304 l 8.699000697259295 12.236233886398344 a36.01326189918636,36.01326189918636 0 0,0 -0.5069379523925973,0.35388206155547536 l -8.48766765369294 -12.383760763758941" fill="#ffbb11" stroke="none" /><path d="M 111.8722381534696 117.32195027204791 l 8.503311297469962 12.406585307545573 a36.04093288380365,36.04093288380365 0 0,0 -0.5133322288567831,0.34539283286432876 l -8.289082780516175 -12.550727814467022" fill="#ffbb11" stroke="none" /><path d="M 111.27062007382361 117.71928675628689 l 8.030676767093425 12.625557737827656 a35.963170704391295,35.963170704391295 0 0,0 -0.5237536973267483,0.3268610437878591 l -7.812758940976961 -12.761554578457064" fill="#ffba11" stroke="none" /><path d="M 110.96478420261333 117.91015095944535 l 8.663278159312462 14.150813802607384 a37.5921041384655,37.5921041384655 0 0,0 -0.5532613333943482,0.3322175342140367 l -8.419084069360677 -14.297445337357344" fill="#ffcf13" stroke="none" /><line stroke="#e1ed5e" stroke-width="0.3" x1="143.1302829299769" x2="145.66735839644613" y1="173.24464959558577" y2="177.55315839532614" /><path d="M 143.63769802327073 174.10635135553383 a86.0,86.0 0 0,1 -40.68552437913181,11.842963189579606" fill="none" id="id30" stroke="none" /><text fill="#e1ed5e" style="font-size:6.75px; font-family:Arial;" text-anchor="middle"><textPath startOffset="21.407464694133747" xlink:href="#id30">June</textPath></text><path d="M 110.34350942703117 118.27599006163325 l 15.521704071918812 27.425363834122027 a52.51307472669383,52.51307472669383 0 0,0 -0.7883358097801687,0.4372765847189721 l -15.048624073982548 -27.687773334274144" fill="#7fff26" stroke="none" /><path d="M 109.71004243097381 118.62028667847754 l 7.022527433149673 13.466622308014573 a36.18768606259872,36.18768606259872 0 0,0 -0.5532800430416784,0.2825087322534662 l -6.7903201683944125 -13.585188991940875" fill="#ffbd11" stroke="none" /><path d="M 109.3889696526874 118.78422872680471 l 6.842900818955649 13.69038551544479 a36.3052914764654,36.3052914764654 0 0,0 -0.5598617401050701,0.27385643211495814 l -6.60687882958851 -13.80583569765697" fill="#ffbf11" stroke="none" /><path d="M 109.06512990194946 118.94263497670748 l 6.742090247618062 14.088375557992125 a36.61851807214937,36.61851807214937 0 0,0 -0.5693504491360468,0.2664847583851613 l -6.499251084610509 -14.202036547947818" fill="#ffc312" stroke="none" /><path d="M 108.4095320186766 119.2426549942271 l 6.180776858096589 14.14282702206446 a36.43442771033701,36.43442771033701 0 0,0 -0.5752561088088691,0.24554262600783658 l -5.937085674117289 -14.2468442977317" fill="#ffc011" stroke="none" /><path d="M 107.74402155503746 119.51999308798841 l 3.3120807181675165 8.348607021042415 a29.98159884850441,29.98159884850441 0 0,0 -0.4800307213171068,0.18568619523985133 l -3.1682777343568804 -8.404233104420307" fill="#ff6a09" stroke="none" /><path d="M 107.407793817531 119.65005319985036 l 6.345090421836842 16.83110618601302 a38.9873930269545,38.9873930269545 0 0,0 -0.6282741309069355,0.23071096337251962 l -6.05522713927578 -16.937547998394262" fill="#ffe115" stroke="none" /><path d="M 107.06938296918513 119.77432235084164 l 5.10327565671711 14.274770276416273 a36.15956756879625,36.15956756879625 0 0,0 -0.5862916210725307,0.2039426600233424 l -4.857478263599558 -14.360271369008206" fill="#ffbd11" stroke="none" /><path d="M 106.72888874123015 119.89276391827305 l 5.7442644028623535 16.981897018168016 a38.92711353971005,38.92711353971005 0 0,0 -0.6348405369693199,0.20868469403712092 l -5.4519011282453 -17.078002633607156" fill="#ffe015" stroke="none" /><path d="M 106.0420521117495 120.11202640906438 l 9.067797071215058 30.18374730891015 a52.516401211637046,52.516401211637046 0 0,0 -0.865620307864696,0.25196945593387154 l -8.548316750968754 -30.33496045914654" fill="#7fff26" stroke="none" /><path d="M 104.9986988182912 120.39639698878246 l 3.9459399391752035 16.100781507140802 a37.577261750490194,37.577261750490194 0 0,0 -0.6278406142260625,0.1481686754359899 l -3.6689671712092617 -16.166146326223014" fill="#ffcf13" stroke="none" /><path d="M 104.29559338865022 120.5559693870025 l 4.362534789919248 20.876308225134878 a42.32725849480167,42.32725849480167 0 0,0 -0.7125159350358082,0.1425231421797356 l -4.003522369352482 -20.948120763977474" fill="#f4ff19" stroke="none" /><path d="M 103.94208987418118 120.62667999033965 l 1.9981615369062742 10.455225503789906 a31.64445347881565,31.64445347881565 0 0,0 -0.5344375487950156,0.09739232444189849 l -1.8183892545602014 -10.487986002163169" fill="#ff810b" stroke="none" /><path d="M 103.58742460773223 120.69131181640829 l 6.149643232662411 35.4695079619024 a56.99866812742505,56.99866812742505 0 0,0 -0.9655099309017573,0.1588742917102602 l -5.539855798707581 -35.56984825210833" fill="#50ff2b" stroke="none" /><path d="M 102.875027216393 120.80226474461374 l 3.5720314422986155 25.84544011100006 a47.09111310688106,47.09111310688106 0 0,0 -0.8017198727409511,0.10379868851734268 l -3.127833747666889 -25.902950395717795" fill="#bcff1f" stroke="none" /><path d="M 102.51750503828377 120.84855314841334 l 1.828564818030592 15.143139820692769 a36.25314173941848,36.25314173941848 0 0,0 -0.6184856733052949,0.06930260973152128 l -1.5683432431244977 -15.17229819093126" fill="#ffbe11" stroke="none" /><path d="M 101.80034050326958 120.92268563240118 l 3.342761237401276 38.84795258858354 a59.99150513913392,59.99150513913392 0 0,0 -1.0268003331955005,0.0794808397284962 l -2.6753919094305396 -38.89961119530709" fill="#33ff2f" stroke="none" /><path d="M 101.44090949804482 120.95050786540614 l 1.0471993210485997 15.226048299387555 a36.262017338257984,36.262017338257984 0 0,0 -0.6213853210591719,0.03738099787904863 l -0.7856696478569627 -15.241781275091295" fill="#ffbe11" stroke="none" /><path d="M 100.72087961077811 120.9876233191556 l 0.5136046847299748 14.953040004046253 a35.96185801078142,35.96185801078142 0 0,0 -0.6171511823030471,0.015895625270172284 l -0.25684018835618394 -14.95965334666647" fill="#ffba11" stroke="none" /><line stroke="#e1ed5e" stroke-width="0.3" x1="101.45913802915013" x2="101.54496967792366" y1="184.9874750549273" y2="189.98673829345242" /><path d="M 101.47630435890484 185.9873277026323 a86.0,86.0 0 0,1 -42.54439059252881,-10.42667462771756" fill="none" id="id31" stroke="none" /><text fill="#e1ed5e" style="font-size:6.75px; font-family:Arial;" text-anchor="middle"><textPath startOffset="22.145653131862474" xlink:href="#id31">July</textPath></text><path d="M 100.0 121.0 l 4.033314601090151e-15 32.93451306857048 a53.93451306857048,53.93451306857048 0 0,0 -0.9258576364946483,-0.007947374278910029 l 0.565364711645792 -32.929660092486" fill="#70ff27" stroke="none" /><path d="M 99.27912038922189 120.98762331915562 l -1.5401309609679885 44.83923249830251 a65.86567479057636,65.86567479057636 0 0,0 -1.12967234858135,-0.048512991329041265 l 2.3096290701501774 -44.80618693854763" fill="#36ff71" stroke="none" /><path d="M 98.91894614982273 120.97215588758144 l -0.7742754410203876 15.020736706448766 a36.04067929526538,36.04067929526538 0 0,0 -0.6175924760659262,-0.037152829742718003 l 1.03201226921876 -15.005231898881355" fill="#ffbb11" stroke="none" /><path d="M 97.84075906011543 120.88869738790638 l -2.367064282999924 22.899199710408535 a44.021215013483285,44.021215013483285 0 0,0 -0.7510105193925213,-0.08415229515597158 l 2.7598107039932445 -22.855191654745592" fill="#e0ff1b" stroke="none" /><path d="M 97.48249496171623 120.84855314841334 l -2.0075861878094825 16.625693573626386 a37.74646497340872,37.74646497340872 0 0,0 -0.6426284939626636,-0.08320112441412918 l 2.2926925036629404 -16.588780853011862" fill="#ffd113" stroke="none" /><path d="M 96.76829788921471 120.74984581791261 l -6.9290843650144405 44.48969221312952 a66.0260471655739,66.0260471655739 0 0,0 -1.1184262076797211,-0.18403660686260828 l 7.691788075747224 -44.364189607771245" fill="#36ff73" stroke="none" /><path d="M 96.41257539226777 120.69131181640829 l -2.6425050370828758 15.241266835507117 a36.46864724603084,36.46864724603084 0 0,0 -0.6159124996450492,-0.11223977456018264 l 2.903752270278982 -15.19365888701557" fill="#ffc111" stroke="none" /><path d="M 96.05791012581884 120.62667999033965 l -3.395594924657523 17.76718748764715 a39.08875385739895,39.08875385739895 0 0,0 -0.6580005649907547,-0.13161854137874193 l 3.7000919751792356 -17.706279549605547" fill="#ffe215" stroke="none" /><path d="M 95.35216902796893 120.47920084513623 l -8.620512231752722 37.983567484354985 a59.949513860590706,59.949513860590706 0 0,0 -1.0016360386955334,-0.2363833778186118 l 9.271280424188143 -37.829987962890144" fill="#33ff2f" stroke="none" /><path d="M 94.6519064749342 120.30758222061772 l -3.799028553466464 14.425530209299268 a35.91739051474685,35.91739051474685 0 0,0 -0.5948922119486056,-0.16214051773475222 l 4.0461021663497645 -14.358189197420371" fill="#ffba11" stroke="none" /><path d="M 94.30408787586889 120.21278271476187 l -4.385451391569711 15.56241988151645 a37.168521777714844,37.168521777714844 0 0,0 -0.612643412758676,-0.17833156869328717 l 4.651954816709994 -15.484844618520647" fill="#ffca12" stroke="none" /><path d="M 93.61358852112213 120.00534299687104 l -6.471350881441285 20.271414465621575 a42.27930042712266,42.27930042712266 0 0,0 -0.6895094792595026,-0.2266554612310755 l 6.818383098348531 -20.157338082988478" fill="#f5ff19" stroke="none" /><path d="M 92.59220618246901 119.65005319985036 l -5.287119312111873 14.024712122938343 a35.988201384815994,35.988201384815994 0 0,0 -0.576201501359236,-0.22288711894380436 l 5.527093075964637 -13.931885115856499" fill="#ffbb11" stroke="none" /><path d="M 92.25597844496254 119.51999308798841 l -5.510106523334866 13.889067906792016 a35.942137772687595,35.942137772687595 0 0,0 -0.5715579316413126,-0.23244763501494203 l 5.747718916166619 -13.792433015197783" fill="#ffba11" stroke="none" /><path d="M 91.59046798132341 119.24265499422711 l -5.984856036099008 13.694521839860272 a35.94518083514685,35.94518083514685 0 0,0 -0.5632893926084437,-0.2519521805619326 l 6.219058831563086 -13.589765908388484" fill="#ffba11" stroke="none" /><path d="M 91.26138138417905 119.09545874513695 l -26.215855847462862 57.28637623541087 a84.0,84.0 0 0,0 -1.3060451445140404,-0.6112950737178937 l 27.19538970584839 -56.82790493012245" fill="#4dd2ff" stroke="none" /><path d="M 90.6110303473126 118.78422872680471 l -5.530465372146347 11.064635456174367 a33.36981022532443,33.36981022532443 0 0,0 -0.5101970323778773,-0.2605102400299248 l 5.7195896262378065 -10.968067264471607" fill="#ff980e" stroke="none" /><path d="M 90.28995756902619 118.62028667847754 l -6.94381482646862 13.31568050605743 a36.01745356855427,36.01745356855427 0 0,0 -0.5457693596381988,-0.290591443425909 l 7.171373001893381 -13.194518594908947" fill="#ffbb11" stroke="none" /><path d="M 89.97174638481275 118.45085714620012 l -7.150074066248225 13.155330952270978 a35.97285181976414,35.97285181976414 0 0,0 -0.5400309811799984,-0.29954608196559607 l 7.374849235584326 -13.030651954872233" fill="#ffba11" stroke="none" /><line stroke="#e1ed5e" stroke-width="0.3" x1="58.13341422392154" x2="55.67067388415222" y1="173.97424548756322" y2="178.32567169271397" /><path d="M 57.64086615596768 174.84453072859336 a86.0,86.0 0 0,1 -31.369924170532247,-30.572349798747897" fill="none" id="id32" stroke="none" /><text fill="#e1ed5e" style="font-size:6.75px; font-family:Arial;" text-anchor="middle"><textPath startOffset="22.145653131862474" xlink:href="#id32">August</textPath></text><path d="M 89.34428304082925 118.09573695890944 l -7.577998423286437 12.86909803143772 a35.934515199566604,35.934515199566604 0 0,0 -0.5288657884369182,-0.3175687104080375 l 7.797796968280783 -12.737115320493762" fill="#ffba11" stroke="none" /><path d="M 88.72937992617639 117.7192867562869 l -8.038306373162467 12.63755274581208 a35.977386579507346,35.977386579507346 0 0,0 -0.5182703025783243,-0.3359365485671168 l 8.2540623079978 -12.497702355541069" fill="#ffba11" stroke="none" /><path d="M 88.4268655584334 117.5232005979908 l -11.351105193851339 17.18702001821963 a41.59711742522631,41.59711742522631 0 0,0 -0.5924691536357103,-0.3986396876243333 l 11.644470635584055 -16.98963065653818" fill="#fdff18" stroke="none" /><path d="M 87.83215693770417 117.11559508785305 l -12.423558156326077 17.475290391685164 a42.441328586105385,42.441328586105385 0 0,0 -0.5901749472429296,-0.42724114880975944 l 12.72171411394296 -17.25944847150234" fill="#f3ff19" stroke="none" /><path d="M 87.54013794807813 116.9041958592261 l -9.912609728997346 13.448358869205567 a37.70683057657415,37.70683057657415 0 0,0 -0.5177453283049182,-0.38852574661667144 l 10.14200804621303 -13.27621409532488" fill="#ffd113" stroke="none" /><path d="M 86.96720088162412 116.46651593811092 l -12.837043767888982 16.219185447593492 a41.684575636984334,41.684575636984334 0 0,0 -0.5572815475310081,-0.4489065668000779 l 13.113576085775252 -15.996430587000004" fill="#fcff18" stroke="none" /><path d="M 86.40962598614128 116.0094264158162 l -12.40092181024046 14.608254710788907 a40.16204497017434,40.16204497017434 0 0,0 -0.5217633334547749,-0.45068674044939383 l 12.649864623458098 -14.393223837874793" fill="#fff016" stroke="none" /><path d="M 86.13680546590413 115.77377054828092 l -11.960098499471952 13.608396607399508 a39.11718560763105,39.11718560763105 0 0,0 -0.500578848810093,-0.44762069332834115 l 12.191942375105416 -13.401080384187784" fill="#ffe215" stroke="none" /><path d="M 85.60350026404147 115.28858382429668 l -14.498902445583527 15.397331953262123 a42.14937359369054,42.14937359369054 0 0,0 -0.5225067452371246,-0.5005496423564104 l 14.761081676685965 -15.14617018060013" fill="#f6ff19" stroke="none" /><path d="M 85.34317274990678 115.03919595460226 l -13.085813231923051 13.427197173178554 a39.749083494085426,39.749083494085426 0 0,0 -0.48457554961498145,-0.48043390313756784 l 13.314380701667995 -13.200583259812326" fill="#ffea16" stroke="none" /><path d="M 85.08716467003676 114.78537596483092 l -25.879450375762353 25.65825982132496 a57.442999997395454,57.442999997395454 0 0,0 -0.6882579514685102,-0.7062132904228824 l 26.316095128381672 -25.21022383883434" fill="#4cff2c" stroke="none" /><path d="M 84.58840730492382 114.26474011684316 l -13.126954133438591 12.150112771864677 a38.886927214880416,38.886927214880416 0 0,0 -0.4492408547392601,-0.4937943947729655 l 13.333592689019731 -11.922980801534036" fill="#ffe015" stroke="none" /><path d="M 84.3458050057657 113.99807769240083 l -12.672516815422215 11.331842678967012 a38.00009826259887,38.00009826259887 0 0,0 -0.4306477597611829,-0.48999809768932945 l 12.86517563914199 -11.112632303466382" fill="#ffd413" stroke="none" /><path d="M 83.8745106332314 113.45245675266167 l -16.057629376406485 13.395845535177413 a41.91162688057448,41.91162688057448 0 0,0 -0.45614455402090653,-0.5564221878384847 l 16.285220749666024 -13.118221065640434" fill="#f9ff18" stroke="none" /><path d="M 83.64595745247003 113.17365903436017 l -15.476958627911683 12.467142314228699 a40.87374866132008,40.87374866132008 0 0,0 -0.4354680800503254,-0.5501996935237718 l 15.68869313860357 -12.199622676790247" fill="#fff817" stroke="none" /><path d="M 83.4222238831116 112.89097897827486 l -35.36384619144339 27.499140694777836 a65.79736997194425,65.79736997194425 0 0,0 -0.6856963958879942,-0.8975985933673891 l 35.830694564685686 -26.888021188169578" fill="#36ff70" stroke="none" /><path d="M 82.98947788004972 112.3143062007846 l -14.634940671368293 10.594568431628606 a39.06727341651006,39.06727341651006 0 0,0 -0.3885982646814663,-0.5466121247684312 l 14.81465403457972 -10.34177908015067" fill="#ffe215" stroke="none" /><path d="M 82.78059297857968 112.02048342749411 l -15.427133991157547 10.76933765743255 a39.81422591447555,39.81422591447555 0 0,0 -0.38640704105349377,-0.5637794208113743 l 15.609730769026365 -10.502923501551125" fill="#ffeb16" stroke="none" /><path d="M 82.37810715431573 111.42229804090323 l -18.46812716850334 11.970816905041508 a43.00845697649062,43.00845697649062 0 0,0 -0.39625597787714306,-0.6229802135913866 l 18.67090083800637 -11.652023016771448" fill="#ecff1a" stroke="none" /><path d="M 82.18462484594161 111.11811171558189 l -15.789458916740529 9.853790147378481 a39.61193684579899,39.61193684579899 0 0,0 -0.35505883354041434,-0.5799619208810132 l 15.956285714736348 -9.581291110372911" fill="#ffe915" stroke="none" /><path d="M 81.99639281039703 110.81064883170644 l -29.466827284224262 17.693983133461142 a55.3710772209064,55.3710772209064 0 0,0 -0.4823250343875434,-0.8190933547143673 l 29.766226028741578 -17.185538610453214" fill="#61ff29" stroke="none" /><line stroke="#e1ed5e" stroke-width="0.3" x1="26.387840678322732" x2="22.057713659400548" y1="142.50000000000003" y2="145.00000000000006" /><path d="M 25.521815274538298 143.00000000000003 a86.0,86.0 0 0,1 -11.493303480769221,-40.785679425670985" fill="none" id="id33" stroke="none" /><text fill="#e1ed5e" style="font-size:6.75px; font-family:Arial;" text-anchor="middle"><textPath startOffset="21.40746469413373" xlink:href="#id33">September</textPath></text><path d="M 81.63589988554817 110.18625677009913 l -18.993198109861403 10.53520682345642 a42.719395876806644,42.719395876806644 0 0,0 -0.3502067934198084,-0.6443410552792458 l 19.17125025289654 -10.207610934702588" fill="#efff19" stroke="none" /><path d="M 81.4637452351635 109.86951160357371 l -14.887058410423005 7.9265200866506085 a37.865770922179095,37.865770922179095 0 0,0 -0.30056754641763095,-0.5763779015723248 l 15.020934025815585 -7.669795941973781" fill="#ffd313" stroke="none" /><path d="M 81.1358732173502 109.22738970284198 l -18.797726338467147 9.19490991822354 a41.926081427255966,41.926081427255966 0 0,0 -0.31069370964489174,-0.6492303579782882 l 18.95279930607195 -8.87086705818015" fill="#f9ff18" stroke="none" /><path d="M 80.9802524753101 108.90220220490708 l -16.51806111386206 7.731286647087613 a39.23784900092983,39.23784900092983 0 0,0 -0.28029937694338053,-0.6125047246048172 l 16.648344955660495 -7.446592940268107" fill="#ffe415" stroke="none" /><path d="M 80.83023694016515 108.57439118712176 l -34.888028567558116 15.604971420460533 a59.21897003274868,59.21897003274868 0 0,0 -0.40710537212292536,-0.9315367614582953 l 35.15076782169801 -15.003772589226388" fill="#3aff2e" stroke="none" /><path d="M 80.5471966667186 107.91128576633889 l -11.589418219564417 4.713315496472581 a33.51119329389728,33.51119329389728 0 0,0 -0.2121439257122395,-0.5347412754640272 l 11.668620820242781 -4.513673203794989" fill="#ff9a0e" stroke="none" /><path d="M 80.41425534168474 107.57618678355246 l -18.624978747626624 7.2045418896956095 a40.969858717325025,40.969858717325025 0 0,0 -0.24810042463339968,-0.6581158524437216 l 18.745909856074462 -6.883757757057743" fill="#fffa17" stroke="none" /><path d="M 80.16572619554312 106.89939002012753 l -20.85750511355268 7.255322985047636 a43.08337001409062,43.08337001409062 0 0,0 -0.2369884440199709,-0.7006142246581935 l 20.97897897914502 -6.896207085915281" fill="#ebff1a" stroke="none" /><path d="M 80.05021161711548 106.5578916946017 l -17.06033625624897 5.608071388764808 a38.95843918267302,38.95843918267302 0 0,0 -0.2033914072698518,-0.6371206863990735 l 17.154092379296074 -5.314381668674343" fill="#ffe115" stroke="none" /><path d="M 79.94057633289273 106.21446072829308 l -42.78935755203794 13.256252348469276 a65.79572910493191,65.79572910493191 0 0,0 -0.324979769086087,-1.0817519573459224 l 43.01061364112766 -12.51976278753263" fill="#36ff70" stroke="none" /><path d="M 79.73907114497094 105.5222062557868 l -7.485301183880809 2.0401521233225646 a28.75834740777345,28.75834740777345 0 0,0 -0.1257294669859787,-0.47741526516046184 l 7.51922013167152 -1.9113563537893004" fill="#ff5908" stroke="none" /><path d="M 79.64726062577567 105.17358676015961 l -18.98803243220915 4.826683592144331 a40.59189245951758,40.59189245951758 0 0,0 -0.16587098549218174,-0.6768102244206897 l 19.068090944217627 -4.500017543115542" fill="#fff517" stroke="none" /><path d="M 79.48165901384964 104.47187691870673 l -22.133504768803824 4.823894347623345 a43.65307904077709,43.65307904077709 0 0,0 -0.15328942752532174,-0.7335454021060928 l 22.213051907153513 -4.443232494231844" fill="#e4ff1a" stroke="none" /><path d="M 79.407916724674 104.11899336999214 l -17.607497259129644 3.5219925785465045 a38.95629113858412,38.95629113858412 0 0,0 -0.1255388885849401,-0.656872512761336 l 17.66536243999674 -3.219217500751854" fill="#ffe015" stroke="none" /><path d="M 79.34024301695615 103.76489593502545 l -3.9207231376987473 0.7144863618481669 a24.98529304866698,24.98529304866698 0 0,0 -0.07327256344819834,-0.4226166745431998 l 3.93241051863918 -0.6470766543843745" fill="#ff2403" stroke="none" /><path d="M 79.2786578344484 103.40968896794605 l -31.076662879740493 5.113653050804146 a52.49457768037284,52.49457768037284 0 0,0 -0.13868194478756624,-0.890437569250778 l 31.159866316666328 -4.579427299621918" fill="#80ff26" stroke="none" /><path d="M 79.17382384314188 102.69636545807758 l -20.25153250413966 2.6219663324664526 a41.420560134697894,41.420560134697894 0 0,0 -0.0852433426179945,-0.7059371608372835 l 20.29355793301732 -2.27393549470577" fill="#ffff18" stroke="none" /><path d="M 79.13060592940153 102.33845913500099 l -18.34725916334768 2.0558486579735415 a39.462080936653294,39.462080936653294 0 0,0 -0.06965547276269485,-0.6738535126280387 l 18.37984702859204 -1.7405906230625714" fill="#ffe715" stroke="none" /><path d="M 79.06263194458094 101.62068470465958 l -19.925052645369586 1.5423250895916374 a40.98465635438181,40.98465635438181 0 0,0 -0.04827609767706712,-0.7019238650775189 l 19.94859270421172 -1.2000578003597753" fill="#fffa17" stroke="none" /><path d="M 79.01933749520258 100.90099992219065 l -27.28156721602078 1.1715878816149436 a48.30671214054535,48.30671214054535 0 0,0 -0.02846717537582881,-0.8287907506544221 l 27.29765907839346 -0.7030908663964016" fill="#aeff20" stroke="none" /><path d="M 79.00696218219943 100.54070618675478 l -17.145356982807204 0.4416035771088898 a38.15104311076184,38.15104311076184 0 0,0 -0.011242873327294801,-0.6548410070605591 l 17.150411287733167 -0.14721565407927825" fill="#ffd614" stroke="none" /><line stroke="#e1ed5e" stroke-width="0.3" x1="15.003131293944662" x2="10.003315487706104" y1="100.72959589197737" y2="100.7725132973878" /><path d="M 14.003168132696942 100.73817937305945 a86.0,86.0 0 0,1 10.791469493833604,-42.45332614584628" fill="none" id="id34" stroke="none" /><text fill="#e1ed5e" style="font-size:6.75px; font-family:Arial;" text-anchor="middle"><textPath startOffset="22.145653131862435" xlink:href="#id34">October</textPath></text><path d="M 79.00077361379809 99.81974689727619 l -19.851044645670367 -0.17039734340128787 a40.85177596032749,40.85177596032749 0 0,0 0.01203876237364083,-0.7011975539543509 l 19.84519445169806 0.5111418133246912" fill="#fff817" stroke="none" /><path d="M 79.03789590574601 98.7389718711861 l -26.84310470341585 -1.6148145216482876 a47.891632454313225,47.891632454313225 0 0,0 0.056411870488494525,-0.8202162161989475 l 26.811428871762292 2.07537416200156" fill="#b3ff20" stroke="none" /><path d="M 79.13060592940154 97.66154086499901 l -22.266065886984375 -2.4949591252056624 a43.40541254072275,43.40541254072275 0 0,0 0.08932816071659366,-0.7397653144795927 l 22.219955640008113 2.8768181166086912" fill="#e7ff1a" stroke="none" /><path d="M 79.17382384314186 97.30363454192245 l -22.814018227315103 -2.9537314120829192 a44.00443341903884,44.00443341903884 0 0,0 0.10342190881480137,-0.7483094126176415 l 22.759951801945093 3.3449291329006274" fill="#e0ff1b" stroke="none" /><path d="M 79.22317932658666 96.9465228501225 l -22.19573658671951 -3.262008926080481 a43.43415754738447,43.43415754738447 0 0,0 0.11474582147429982,-0.7367504869633169 l 22.13646927310694 3.642547594975248" fill="#e7ff1a" stroke="none" /><path d="M 79.34024301695615 96.23510406497455 l -36.76398681641236 -6.699623070786354 a58.369448429538735,58.369448429538735 0 0,0 0.18809890441296112,-0.9842129509199949 l 36.64356161971725 7.329738586739664" fill="#43ff2d" stroke="none" /><path d="M 79.48165901384962 95.52812308129327 l -22.455404574826442 -4.894050912116555 a43.98253530291045,43.98253530291045 0 0,0 0.167110885634712,-0.7363213961342284 l 22.36808282763407 5.2788066421897915" fill="#e0ff1b" stroke="none" /><path d="M 79.56144815229197 95.17655741523228 l -21.83907017811678 -5.153961097330477 a43.43899064658448,43.43899064658448 0 0,0 0.1775051063342286,-0.7242814076097148 l 21.747377545266257 5.5280983295483095" fill="#e7ff1a" stroke="none" /><path d="M 79.73907114497095 94.47779374421319 l -21.630393573587693 -5.895459954569073 a43.41941957821904,43.41941957821904 0 0,0 0.2021722056954606,-0.7174378353510659 l 21.52600287581765 6.265905713823152" fill="#e7ff1a" stroke="none" /><path d="M 80.83023694016515 91.42560881287825 l -4.382189760409302 -1.9600977406275963 a25.800580199210252,25.800580199210252 0 0,0 0.18430894503022907,-0.40274830735976713 l 4.347896350524026 2.035035030202035" fill="#ff3004" stroke="none" /><line stroke="#e1ed5e" stroke-width="0.3" x1="26.387840678322718" x2="22.05771365940052" y1="57.49999999999999" y2="54.99999999999999" /><path d="M 25.521815274538284 56.99999999999999 a86.0,86.0 0 0,1 29.574782752854787,-30.34633250058573" fill="none" id="id35" stroke="none" /><text fill="#e1ed5e" style="font-size:6.75px; font-family:Arial;" text-anchor="middle"><textPath startOffset="21.40746469413373" xlink:href="#id35">November</textPath></text><path d="M 81.99639281039701 89.18935116829357 l -8.08233108477982 -4.853207592176215 a30.427497000622964,30.427497000622964 0 0,0 0.2727347474740326,-0.44549171318682634 l 7.997828372850394 4.991236421487584" fill="#ff700a" stroke="none" /><path d="M 83.42222388311158 87.10902102172516 l -2.711254821150353 -2.1082881478046924 a24.43449874354101,24.43449874354101 0 0,0 0.26032464854174797,-0.3289116892971801 l 2.6746637419670436 2.1545197810165555" fill="#ff1c02" stroke="none" /><path d="M 85.34317274990677 84.96080404539775 l -2.1059074894508165 -2.160846604500564 a24.017300847165668,24.017300847165668 0 0,0 0.2977316297984692,-0.28522016638499575 l 2.068503373787047 2.1966789011911283" fill="#ff1602" stroke="none" /><path d="M 86.96720088162412 83.53348406188908 l -0.9422030022930623 -1.1904427140535943 a22.518189827713698,22.518189827713698 0 0,0 0.3051644233230053,-0.23729770134648245 l 0.9216286343348123 1.2064414670208816" fill="#ff0000" stroke="none" /><path d="M 88.72937992617638 82.28071324371311 l -0.8283366437982462 -1.3022827871103952 a22.543399511812467,22.543399511812467 0 0,0 0.32831334427319286,-0.2048918087764282 l 0.8058591707353547 1.3163103927283595" fill="#ff0000" stroke="none" /><line stroke="#e1ed5e" stroke-width="0.3" x1="56.869717070023135" x2="54.33264160355391" y1="26.7553504044142" y2="22.446841604673864" /><path d="M 56.362301976729285 25.89364864446614 a86.0,86.0 0 0,1 42.16139366436587,-11.88097634709845" fill="none" id="id36" stroke="none" /><text fill="#e1ed5e" style="font-size:6.75px; font-family:Arial;" text-anchor="middle"><textPath startOffset="22.145653131862474" xlink:href="#id36">December</textPath></text><path d="M 91.26138138417902 80.90454125486306 l -0.6323832199142959 -1.381871462513279 a22.51969644197049,22.51969644197049 0 0,0 0.35290144146726177,-0.15784832604318816 l 0.6085683755914153 1.392523539466313" fill="#ff0000" stroke="none" /><path d="M 93.61358852112211 79.99465700312896 l -0.4609963551562446 -1.4440645166240442 a22.515862779950737,22.515862779950737 0 0,0 0.36921658367873184,-0.11438424142107483 l 0.4361391386058966 1.451765345851761" fill="#ff0000" stroke="none" /><path d="M 96.05791012581881 79.37332000966035 l -2.8287407071036745 -14.801166691612778 a36.06905137760612,36.06905137760612 0 0,0 0.6091637960666646,-0.11100993595705869 l 2.5742421774859716 14.847544801501199" fill="#ffbc11" stroke="none" /><path d="M 96.76829788921471 79.25015418208739 l -2.327379948622084 -14.943448819877329 a36.1236027472802,36.1236027472802 0 0,0 0.6135420092836242,-0.0901695468852327 l 2.070512833730775 14.981199440061447" fill="#ffbc11" stroke="none" /><path d="M 97.12497278360702 79.19773525538626 l -2.053025270067403 -14.85466814081338 a35.9958687088555,35.9958687088555 0 0,0 0.6128248277963347,-0.07934244313871812 l 1.7977226203802743 14.887722180152494" fill="#ffbb11" stroke="none" /><path d="M 97.48249496171623 79.15144685158666 l -1.8013223967976286 -14.91753349286819 a36.02589657518143,36.02589657518143 0 0,0 0.6146088264538203,-0.06886820095548483 l 1.544977668743009 14.946257454330645" fill="#ffbb11" stroke="none" /><path d="M 98.1996594967304 79.07731436759882 l -1.2985694787991005 -15.091345735655054 a36.147111896475266,36.147111896475266 0 0,0 0.6186853697582291,-0.04789016045902872 l 1.0393151142656543 15.111413663109136" fill="#ffbd11" stroke="none" /><path d="M 99.27912038922189 79.0123766808444 l -0.5272168789716803 -15.349344187186746 a36.358395899774045,36.358395899774045 0 0,0 0.6239562763820676,-0.01607090035431733 l 0.26364728851886876 15.356132804891109" fill="#ffbf11" stroke="none" /></svg>