<?xml version="1.0" encoding="utf-8" ?>
<svg baseProfile="full" height="200mm" version="1.1" viewBox="0,0,200,200" width="200mm" xmlns="http://www.w3.org/2000/svg" xmlns:ev="http://www.w3.org/2001/xml-events" xmlns:xlink="http://www.w3.org/1999/xlink"><defs /><rect fill="#1a1a1a" height="200" width="200" x="0" y="0" /><rect fill="#1a1a1a" height="200" width="180" x="10" y="0" /><text alignment-baseline="middle" fill="#e1ed5e" style="dominant-baseline: central; font-size:9.0px; font-family:Arial;" text-anchor="middle" x="100.0" y="100.0">2025</text><line stroke="#e1ed5e" stroke-width="0.3" x1="100.0" x2="100.0" y1="15.0" y2="10.0" /><path d="M 100.0 14.0 a86.0,86.0 0 0,1 42.46469731375804,11.215312516191453" fill="none" id="id37" stroke="none" /><text fill="#e1ed5e" style="font-size:6.75px; font-family:Arial;" text-anchor="middle"><textPath startOffset="22.20632615414155" xlink:href="#id37">January</textPath></text><path d="M 102.16513564639614 79.11191278185805 l 3.1053835759028874 -29.959103526475896 a51.119616386394895,51.119616386394895 0 0,0 0.874469919514424,0.09825688449454668 l -3.620620198927037 29.901210688510748" fill="#98ff23" stroke="none" /><path d="M 102.52436894288641 79.15227682838746 l 3.6053010364201574 -29.774696036179783 a50.992177640346696,50.992177640346696 0 0,0 0.8704735545417059,0.11301245013780715 l -4.11728931946971 29.70822526287784" fill="#99ff23" stroke="none" /><path d="M 102.88285421437855 79.19881850522331 l 4.212613484630765 -30.39603502115957 a51.686561511164,51.686561511164 0 0,0 0.880224651970218,0.12972223268531938 l -4.735207117029639 30.31901830431328" fill="#91ff24" stroke="none" /><path d="M 103.59715602781102 79.31037775812273 l 5.447986794002632 -31.334973483271966 a52.805048707791414,52.805048707791414 0 0,0 0.8941777595661708,0.16340527012031578 l -5.986559674671704 31.236552731800913" fill="#85ff25" stroke="none" /><path d="M 104.307194497241 79.44645832069477 l 6.178058433335129 -29.481134782298557 a51.1215157994706,51.1215157994706 0 0,0 0.8597112027087342,0.18789957031418197 l -6.6846123601973915 29.370421713888504" fill="#98ff23" stroke="none" /><path d="M 104.66035177308747 79.52364482259891 l 6.672875645334565 -29.31885368772899 a51.06862901664389,51.06862901664389 0 0,0 0.8554635251120798,0.20246057747605026 l -7.176562857409168 29.19964719811207" fill="#98ff23" stroke="none" /><path d="M 105.01212808612495 79.60689891045804 l 7.138765787271414 -29.04586033174257 a50.91026545145685,50.91026545145685 0 0,0 0.8492101648729141,0.21648257947917604 l -7.637684840829353 28.918674756094525" fill="#9aff23" stroke="none" /><path d="M 108.43124777332544 80.76684994638697 l 2.405106466487398 -5.486468291350221 a26.990481735814818,26.990481735814818 0 0,0 0.42390207179369066,0.1901925031650227 l -2.499190656747869 5.4442554576686675" fill="#ff2c04" stroke="none" /><path d="M 109.08828744355905 81.06846463323043 l 2.609604034037588 -5.435986853459395 a27.02992423546504,27.02992423546504 0 0,0 0.4177136697590234,0.2049702836402026 l -2.702788970807043 5.390261409684361" fill="#ff2d04" stroke="none" /><line stroke="#e1ed5e" stroke-width="0.3" x1="143.23703022742887" x2="145.7803849466894" y1="26.81831364943548" y2="22.513508569990506" /><path d="M 143.74570117128098 25.957352633546492 a86.0,86.0 0 0,1 28.547481713284135,27.462654790039103" fill="none" id="id38" stroke="none" /><text fill="#e1ed5e" style="font-size:6.75px; font-family:Arial;" text-anchor="middle"><textPath startOffset="19.985693538727396" xlink:href="#id38">February</textPath></text><path d="M 110.68208982089419 81.91981866633111 l 15.126832657107 -25.60321828689366 a50.7379530714951,50.7379530714951 0 0,0 0.7481140454002007,0.45073034164843384 l -15.565308768724838 25.33904133578661" fill="#9cff22" stroke="none" /><path d="M 111.90073688211348 82.69761687909136 l 17.632284828722547 -25.6354333706908 a52.11387009653937,52.11387009653937 0 0,0 0.7347282919699077,0.5147241219168357 l -18.070944260276107 25.32812440601003" fill="#8cff24" stroke="none" /><path d="M 112.48926042617603 83.11751280151076 l 18.23447872365729 -24.648645565758645 a51.66026651139718,51.66026651139718 0 0,0 0.7103381263349019,0.5350119499016914 l -18.656063003750575 24.331117026351105" fill="#92ff23" stroke="none" /><path d="M 114.16331599549186 84.49514656593476 l 20.09294241201521 -21.99612910257533 a50.79187859584758,50.79187859584758 0 0,0 0.6404423342585573,0.5952213517662722 l -20.468592630068613 21.647003164734418" fill="#9bff22" stroke="none" /><path d="M 114.42810811169701 84.74124197986012 l 20.713238788243 -21.90573400451191 a51.147959190883945,51.147959190883945 0 0,0 0.634519067821589,0.6104068405155754 l -21.08724109967701 21.545944077234033" fill="#97ff23" stroke="none" /><path d="M 115.19652480421416 85.50635884689758 l 21.758533120158354 -20.752137421183043 a51.06800577172842,51.06800577172842 0 0,0 0.6012228489796321,0.6413426162406095 l -22.11252329110845 20.37452538806438" fill="#98ff23" stroke="none" /><path d="M 115.68641384162765 86.03803664274999 l 22.639928041264984 -20.151058674996666 a51.308934449050085,51.308934449050085 0 0,0 0.5815211366678456,0.6647791853042478 l -22.983441041510677 19.75836393348947" fill="#95ff23" stroke="none" /><path d="M 115.9244219780498 86.31012108654704 l 22.867066396345493 -19.65831918441767 a51.15546780819885,51.15546780819885 0 0,0 0.5682870334168683,0.672672600608117 l -23.20206404324948 19.261787634180447" fill="#97ff23" stroke="none" /><line stroke="#e1ed5e" stroke-width="0.3" x1="172.23445277983987" x2="176.4835382374775" y1="55.19839476539836" y2="52.563006222186495" /><path d="M 173.08426987136738 54.67131705675599 a86.0,86.0 0 0,1 12.851231095245387,41.99856678651699" fill="none" id="id39" stroke="none" /><text fill="#e1ed5e" style="font-size:6.75px; font-family:Arial;" text-anchor="middle"><textPath startOffset="22.20632615414155" xlink:href="#id39">March</textPath></text><path d="M 118.03404312379186 89.2402003453031 l 2.6027506891560646 -1.55290057665977 a24.030810345582946,24.030810345582946 0 0,0 0.20888533062974254,0.3570527412209944 l -2.629095694256132 1.5078684230848802" fill="#ff0000" stroke="none" /><path d="M 119.196687751892 91.48605970444005 l 2.795480842133481 -1.2398262291347804 a24.05808473021692,24.05808473021692 0 0,0 0.1646366799582912,0.38000415641052104 l -2.816408231934453 1.1915229281376565" fill="#ff0000" stroke="none" /><path d="M 119.34039704204932 91.81776055985345 l 27.951077114120743 -11.825114296283482 a51.349564081872614,51.349564081872614 0 0,0 0.3373869633878996,0.8170092931376821 l -28.15048576439484 11.342230432692498" fill="#95ff23" stroke="none" /><path d="M 119.47837535516314 92.15188598940014 l 27.602020133205645 -11.121245842038357 a50.75825304874171,50.75825304874171 0 0,0 0.3195508785609761,0.8132221308571778 l -27.78936456164832 10.644474706285395" fill="#9cff22" stroke="none" /><path d="M 119.7369772167798 92.82701384747503 l 28.0445953744899 -10.19221393757087 a50.83924520942301,50.83924520942301 0 0,0 0.2918340182833616,0.8250540684786061 l -28.215882473583072 9.707962242665648" fill="#9bff22" stroke="none" /><path d="M 119.85752413597 93.16781622104841 l 28.117322685506796 -9.674051742003993 a50.73501491689361,50.73501491689361 0 0,0 0.27701971956669696,0.828253701768988 l -28.27967969884526 9.188624937312692" fill="#9cff22" stroke="none" /><path d="M 120.18372546131832 94.20196356495316 l 30.323238747150377 -8.710742891422516 a52.54957764910887,52.54957764910887 0 0,0 0.24226163417066165,0.8715439954901288 l -30.4686871518874 8.187487592513435" fill="#88ff25" stroke="none" /><path d="M 120.28053869075195 94.5502522615342 l 29.02425978414444 -7.79934382075431 a51.053908565307154,51.053908565307154 0 0,0 0.22075629381371722,0.8506640522239588 l -29.15421240982846 7.298583342981501" fill="#98ff23" stroke="none" /><path d="M 120.37134235888165 94.90015583598534 l 29.11387779282053 -7.2884858119729 a51.01232922594677,51.01232922594677 0 0,0 0.2059129666979366,0.8536421836881043 l -29.23502355977929 6.7862583966253895" fill="#99ff23" stroke="none" /><path d="M 120.53481517161879 95.60439243477599 l 31.558318908253135 -6.75525852945548 a53.27322435262378,53.27322435262378 0 0,0 0.18422566958885106,0.898349791330107 l -31.669923873756982 6.211033081961961" fill="#80ff26" stroke="none" /><path d="M 120.6074358757038 95.95851677861258 l 29.73317956786926 -5.831203215520824 a51.29958577531809,51.29958577531809 0 0,0 0.16248356245568393,0.867993687764771 l -29.829148854234806 5.318531450293491" fill="#96ff23" stroke="none" /><path d="M 120.73433829027371 96.67025291283417 l 30.204033420221823 -4.850494425897367 a51.59102696912181,51.59102696912181 0 0,0 0.13326234116614272,0.8780323253032445 l -30.283051654827265 4.32986298820204" fill="#92ff23" stroke="none" /><path d="M 120.78858239683441 97.02765380044208 l 29.500321881362716 -4.217948485181744 a50.800336919700335,50.800336919700335 0 0,0 0.11631825944329094,0.8667061397744704 l -29.568556139863844 3.70952400334261" fill="#9bff22" stroke="none" /><path d="M 120.87857604477298 97.74499172005257 l 29.778896489350387 -3.2162949239057026 a50.952082217451704,50.952082217451704 0 0,0 0.08667403948965612,0.8727957492941338 l -29.829847654522272 2.7032236439071338" fill="#9aff23" stroke="none" /><line stroke="#e1ed5e" stroke-width="0.3" x1="184.98032266829074" x2="189.97916517819016" y1="98.17113171792111" y2="98.06355123074" /><path d="M 185.9800911702706 98.14961562048488 a86.0,86.0 0 0,1 -9.607161424134198,41.387399972396054" fill="none" id="id40" stroke="none" /><text fill="#e1ed5e" style="font-size:6.75px; font-family:Arial;" text-anchor="middle"><textPath startOffset="21.466115282336823" xlink:href="#id40">April</textPath></text><path d="M 120.99980553446 99.90962569577887 l 29.798873838539688 -0.12824178230184316 a50.79914978652802,50.79914978652802 0 0,0 -0.0037632559530401937,0.8744481506257711 l -29.796666285297142 -0.3847158465276126" fill="#9bff22" stroke="none" /><path d="M 120.99824983174949 100.27111621757518 l 29.774201662398987 0.3844257974217013 a50.77668329124192,50.77668329124192 0 0,0 -0.018806564747738525,0.8738671648502258 l -29.76317303496624 -0.896882778062042" fill="#9cff22" stroke="none" /><path d="M 120.8583938346157 102.4346265915055 l 29.53530314077753 3.447409948477367 a50.73581623178492,50.73581623178492 0 0,0 -0.10871595988378985,0.8665731668608885 l -29.471585671646892 -3.9553008696256504" fill="#9cff22" stroke="none" /><path d="M 120.76222939487914 103.15116336523771 l 29.5497491569248 4.484879018735414 a50.88815509612246,50.88815509612246 0 0,0 -0.13889617970954282,0.8649066436380803 l -29.468171222853968 -4.9928648920667" fill="#9aff22" stroke="none" /><path d="M 120.49622156327973 104.57218783832717 l 29.323488813295622 6.541327557156792 a51.04423342995278,51.04423342995278 0 0,0 -0.19868222633681412,0.8559178310620258 l -29.206546021028256 -7.045114045567383" fill="#98ff23" stroke="none" /><path d="M 120.41448212921028 104.9243191809786 l 29.068581285183917 7.011834612333814 a50.902311659202326,50.902311659202326 0 0,0 -0.212792716185932,0.8500011242476001 l -28.943577254702927 -7.51116357597881" fill="#9aff23" stroke="none" /><path d="M 120.32669344350535 105.2749913415812 l 29.1483991695377 7.564317023209292 a51.113918147167766,51.113918147167766 0 0,0 -0.22833785652832142,0.8497301079094832 l -29.013873236667603 -8.064938064294322" fill="#98ff23" stroke="none" /><path d="M 120.02730092923936 106.31721596034902 l 28.562184291015846 9.00937610630332 a50.94941116781399,50.94941116781399 0 0,0 -0.27102114445734227,0.8341173145227645 l -28.402870895542254 -9.499692320803879" fill="#9aff23" stroke="none" /><path d="M 119.9155931802556 106.66101706037122 l 28.321923611340576 9.472618497986858 a50.86405629272443,50.86405629272443 0 0,0 -0.284860923592574,0.8279391844026501 l -28.15467185680477 -9.958730385478809" fill="#9bff22" stroke="none" /><path d="M 119.79798401119884 107.00284435728193 l 28.017543956435084 9.910226187132826 a50.718602800786336,50.718602800786336 0 0,0 -0.29821509340997476,0.8205598587780079 l -27.842804602019886 -10.391033842916965" fill="#9cff22" stroke="none" /><path d="M 118.97047184881838 109.00673069616215 l 27.272189711801673 12.948189701677963 a51.18986499186673,51.18986499186673 0 0,0 -0.3847692134904099,0.7927385446667417 l -27.045267241696546 -13.41571720230998" fill="#97ff23" stroke="none" /><path d="M 118.64920377521936 109.65438752849418 l 26.497273422274553 13.717204720934467 a50.83734579634731,50.83734579634731 0 0,0 -0.4089924790855549,0.7736596375898394 l -26.257228434964105 -14.17127937361044" fill="#9bff22" stroke="none" /><line stroke="#e1ed5e" stroke-width="0.3" x1="174.80103733775053" x2="179.2010983576182" y1="140.37084112569926" y2="142.7455964860345" /><path d="M 175.68104954172406 140.8457921977663 a86.0,86.0 0 0,1 -30.038265399797805,32.042727171017184" fill="none" id="id41" stroke="none" /><text fill="#e1ed5e" style="font-size:6.75px; font-family:Arial;" text-anchor="middle"><textPath startOffset="22.206326154141568" xlink:href="#id41">May</textPath></text><path d="M 117.14729908036423 112.12312394758627 l 24.302502149057453 17.18184563112239 a50.76285318978444,50.76285318978444 0 0,0 -0.5105781138263363,0.7091483436809812 l -24.003144242855512 -17.5976275802545" fill="#9cff22" stroke="none" /><path d="M 116.93607887273984 112.41649034213515 l 25.184239638975313 18.463534009319762 a52.227360027812836,52.227360027812836 0 0,0 -0.5377894369654109,0.720456835108924 l -24.86268893531481 -18.894303723938002" fill="#8bff24" stroke="none" /><path d="M 116.498646956653 112.99209946851258 l 23.393440676335878 18.421505046821157 a50.775911654679916,50.775911654679916 0 0,0 -0.5466440059146815,0.6820224477369016 l -23.072878758366343 -18.821455328136306" fill="#9cff22" stroke="none" /><path d="M 116.27256486870786 113.27417163493432 l 23.520543494623894 19.18663307312828 a51.35363001298781,51.35363001298781 0 0,0 -0.5646551709517081,0.6801635283074751 l -23.18679232377864 -19.588657858549524" fill="#95ff23" stroke="none" /><path d="M 116.0416608686014 113.55231037782055 l 22.92063551394835 19.363803354671393 a51.00520642691287,51.00520642691287 0 0,0 -0.5723694735900264,0.665795006838592 l -22.583923530787544 -19.755475460671512" fill="#99ff23" stroke="none" /><path d="M 115.32070863581623 114.36230785411682 l 21.694725528503817 20.337592356695765 a50.736825294981394,50.736825294981394 0 0,0 -0.6027859769013283,0.6320186868744653 l -21.341433000223525 -20.708018160152736" fill="#9cff22" stroke="none" /><path d="M 114.29624159901734 115.38237550388516 l 20.272386460141895 21.81254833516623 a50.7784639910004,50.7784639910004 0 0,0 -0.6453711865037444,0.5895312772680298 l -19.893915724171286 -22.158272379020843" fill="#9cff22" stroke="none" /><path d="M 113.75828350139079 115.86535959552629 l 19.491953220389473 22.477138738229563 a50.75160510297674,50.75160510297674 0 0,0 -0.6649294610932096,0.5666673120802226 l -19.102158282719216 -22.809330440532733" fill="#9cff22" stroke="none" /><path d="M 112.92097659922987 116.55440617244103 l 38.54924403443482 49.38944347477723 a83.65270419043877,83.65270419043877 0 0,0 -1.1427408388604197,0.8762049462690055 l -37.69337446708091 -50.045687762873605" fill="#4dd5ff" stroke="none" /><path d="M 112.34349029814194 116.9893568818739 l 17.927539494066153 24.675141238165573 a51.50015192478098,51.50015192478098 0 0,0 -0.7216708249092242,0.5148929720239163 l -17.500141341308044 -24.980078472033707" fill="#93ff23" stroke="none" /><path d="M 111.7513745106137 117.40417183066458 l 16.65112008323142 24.660856041975897 a50.755967817385,50.755967817385 0 0,0 -0.7282884425389629,0.4826698673598638 l -16.224156941952494 -24.94382393042708" fill="#9cff22" stroke="none" /><path d="M 111.45004920935366 117.60387380957326 l 16.259336230126433 24.997910313673252 a50.8204885053004,50.8204885053004 0 0,0 -0.7374251274490392,0.470659606400305 l -15.826629300630463 -25.274084348897365" fill="#9bff22" stroke="none" /><line stroke="#e1ed5e" stroke-width="0.3" x1="143.8653032363475" x2="146.44561519142675" y1="172.8068346515853" y2="177.08958963109032" /><path d="M 144.38136562736335 173.6633856474863 a86.0,86.0 0 0,1 -40.68145358897372,12.25698825130547" fill="none" id="id42" stroke="none" /><text fill="#e1ed5e" style="font-size:6.75px; font-family:Arial;" text-anchor="middle"><textPath startOffset="21.466115282336833" xlink:href="#id42">June</textPath></text><path d="M 110.8373102113329 117.98757091392108 l 15.438228066105296 25.624090914548162 a50.91542948075643,50.91542948075643 0 0,0 -0.7545960721333381,0.44582866024754325 l -14.994864122943575 -25.886038147089454" fill="#9aff23" stroke="none" /><path d="M 110.5260780823613 118.17145234162733 l 14.91014519130825 25.739785571666836 a50.746411395347856,50.746411395347856 0 0,0 -0.7596284284024654,0.43133684673109446 l -14.464867995984585 -25.99262558419256" fill="#9cff22" stroke="none" /><path d="M 110.21172684928248 118.3499491758327 l 14.45808506806312 25.980437010755445 a50.73246258057313,50.73246258057313 0 0,0 -0.7667298248000589,0.41808223375313414 l -14.008732431394412 -26.22545989626835" fill="#9cff22" stroke="none" /><path d="M 109.57404056367764 118.69057910512821 l 13.652635127106205 26.6528698243379 a50.94611687326081,50.94611687326081 0 0,0 -0.7839542183967434,0.3930909197267374 l -13.1918270010267 -26.883928584973937" fill="#9aff23" stroke="none" /><path d="M 109.2508944713604 118.85261126421891 l 13.164345744052223 26.827923897384444 a50.88373302505558,50.88373302505558 0 0,0 -0.7896363808439909,0.3790734489289547 l -12.700596695208 -27.05055162281296" fill="#9aff22" stroke="none" /><path d="M 108.92500713936063 119.00905698771935 l 26.775021418081884 57.02717096315804 a84.0,84.0 0 0,0 -1.3141280169303222,0.6032517186637025 l -25.789425405384144 -57.479609752155824" fill="#4dd2ff" stroke="none" /><path d="M 108.2653958097858 119.30500536409082 l 11.712699223489508 27.356671905505163 a50.7586091886934,50.7586091886934 0 0,0 -0.8061640400306509,0.3369766341146516 l -11.240063723961395 -27.554233582639785" fill="#9cff22" stroke="none" /><path d="M 107.93186726928326 119.44442032107085 l 11.235624666377474 27.543351542060833 a50.74685657028747,50.74685657028747 0 0,0 -0.8116571228136145,0.3229751198615017 l -10.759846467521992 -27.732673506328403" fill="#9cff22" stroke="none" /><path d="M 107.59598834532513 119.57807347666477 l 10.766877931308338 27.750796561341026 a50.766295875984156,50.766295875984156 0 0,0 -0.8174093532078617,0.30907427444519536 l -10.287598357340201 -27.93201908589285" fill="#9cff22" stroke="none" /><path d="M 106.91757812671514 119.82793768551818 l 9.804292716613011 28.10216255958562 a50.76332804305336,50.76332804305336 0 0,0 -0.8275154117130292,0.28073815685861747 l -9.319107571962755 -28.26676370334236" fill="#9cff22" stroke="none" /><path d="M 106.2309692047433 120.05430185196036 l 8.940671653910936 28.775447641484863 a51.1324077463266,51.1324077463266 0 0,0 -0.8427717113394794,0.2539202032648194 l -8.444024968131211 -28.92508321385541" fill="#97ff23" stroke="none" /><path d="M 103.7750983002368 120.6578951692458 l 5.347064027954214 29.259923680873243 a50.74448230394284,50.74448230394284 0 0,0 -0.8606047411746477,0.1496271655464661 l -4.842610315307517 -29.347629424940713" fill="#9cff22" stroke="none" /><path d="M 101.98527174616119 120.90594882070398 l 2.827204039417073 29.7719357906693 a50.90587305871928,50.90587305871928 0 0,0 -0.8730494972583578,0.07533038422414978 l -2.3143102244171736 -29.81619042717211" fill="#9aff23" stroke="none" /><path d="M 101.62511606390274 120.93702456842531 l 2.320412560075954 29.89480927443514 a50.98472837969041,50.98472837969041 0 0,0 -0.8755710326327462,0.060384504723354215 l -1.8054787666642775 -29.93032212367478" fill="#99ff23" stroke="none" /><line stroke="#e1ed5e" stroke-width="0.3" x1="102.19456741930631" x2="102.32365962044197" y1="184.97166512339345" y2="189.96999836594603" /><path d="M 102.22038585953345 185.97133177190398 a86.0,86.0 0 0,1 -42.740103519485714,-10.115201625700543" fill="none" id="id43" stroke="none" /><text fill="#e1ed5e" style="font-size:6.75px; font-family:Arial;" text-anchor="middle"><textPath startOffset="22.20632615414155" xlink:href="#id43">July</textPath></text><path d="M 98.73552117531835 120.96189622390904 l -0.18545791885020713 3.074428430874621 a24.08001701557547,24.08001701557547 0 0,0 -0.413530993185406,-0.028519518440637347 l 0.2383516728145432 -3.0707805679176983" fill="#ff0100" stroke="none" /><path d="M 96.22490169976321 120.6578951692458 l -0.5666592809997224 3.1008432344233796 a24.15219471245232,24.15219471245232 0 0,0 -0.4083243477186115,-0.07825633306040809 l 0.619951243290029 -3.0906297030145033" fill="#ff0200" stroke="none" /><path d="M 95.51606077576429 120.51570834832081 l -6.363888728618762 29.117184374808858 a50.80452156413275,50.80452156413275 0 0,0 -0.8527414367186952,-0.19408117470940858 l 6.86415031473032 -29.003326466521763" fill="#9bff22" stroke="none" /><path d="M 95.16358092515715 120.4354850818985 l -6.850083704608842 28.943890343050665 a50.74344356241706,50.74344356241706 0 0,0 -0.8482532944478471,-0.20848002187516104 l 7.3472902837999 -28.821689062861473" fill="#9cff22" stroke="none" /><path d="M 94.81253420990036 120.34920634021253 l -7.343492719289426 28.80679211183745 a50.728070187835556,50.728070187835556 0 0,0 -0.8442831118275285,-0.22298284340344315 l 7.838266273928443 -28.676117919130427" fill="#9cff22" stroke="none" /><path d="M 94.46302465271185 120.25689768951611 l -7.843141343201001 28.693953248581884 a50.74655978699439,50.74655978699439 0 0,0 -0.840626022657672,-0.2375693107894422 l 8.335898533963286 -28.554695144453923" fill="#9cff22" stroke="none" /><path d="M 93.76903079525671 120.05430185196036 l -8.956134885885966 28.825215873592075 a51.184522892591296,51.184522892591296 0 0,0 -0.839130413982062,-0.2686630596919724 l 9.450986644958968 -28.666779967240394" fill="#97ff23" stroke="none" /><path d="M 91.7346041902142 119.30500536409082 l -1.211762461887724 2.8302432654284058 a24.07874084741523,24.07874084741523 0 0,0 -0.37961777499301297,-0.16641327661889188 l 1.2603009115384805 -2.808965435515062" fill="#ff0100" stroke="none" /><line stroke="#e1ed5e" stroke-width="0.3" x1="58.666819895761336" x2="56.23545636021788" y1="174.27360380694188" y2="178.64263932499728" /><path d="M 58.180547188652646 175.14741091055294 a86.0,86.0 0 0,1 -31.652253787137756,-30.449443065178592" fill="none" id="id44" stroke="none" /><text fill="#e1ed5e" style="font-size:6.75px; font-family:Arial;" text-anchor="middle"><textPath startOffset="22.20632615414155" xlink:href="#id44">August</textPath></text><path d="M 86.51685102203217 116.09983520530335 l -19.348902917818084 23.103961017512635 a51.135909789184936,51.135909789184936 0 0,0 -0.6699644842688584,-0.5709582680630134 l 19.743732878663998 -22.76747835922667" fill="#97ff23" stroke="none" /><path d="M 86.24171649860922 115.8653595955263 l -19.490533812322877 22.475501948335925 a50.74943858493725,50.74943858493725 0 0,0 -0.6550487340068916,-0.5780043465507367 l 19.874524899236356 -22.1366744600129" fill="#9cff22" stroke="none" /><path d="M 85.97065885151581 115.62618273729859 l -19.85913913221235 22.11953746088186 a50.72640820139432,50.72640820139432 0 0,0 -0.6447095810895365,-0.5889269164086597 l 20.236948262768742 -21.77441777788662" fill="#9cff22" stroke="none" /><path d="M 85.70375840098266 115.38237550388516 l -20.31576491496524 21.859222398153317 a50.84218336402449,50.84218336402449 0 0,0 -0.6359247462409857,-0.6013065399921932 l 20.68902549559704 -21.506281221415197" fill="#9bff22" stroke="none" /><path d="M 85.18274418774928 114.88116024355367 l -31.485257731966023 31.621048563634332 a65.62300042256288,65.62300042256288 0 0,0 -0.7935988652045022,-0.8039114605816743 l 32.02489722222606 -31.074396609071993" fill="#35ff69" stroke="none" /><line stroke="#e1ed5e" stroke-width="0.3" x1="26.63291911575756" x2="22.317208475507996" y1="142.92168965132927" y2="145.44649492493687" /><path d="M 25.769776987707644 143.4266507060508 a86.0,86.0 0 0,1 -11.730757126820373,-40.83630448921669" fill="none" id="id45" stroke="none" /><text fill="#e1ed5e" style="font-size:6.75px; font-family:Arial;" text-anchor="middle"><textPath startOffset="21.46611528233685" xlink:href="#id45">September</textPath></text><line stroke="#e1ed5e" stroke-width="0.3" x1="15.007084014347285" x2="10.007500721073583" y1="101.09737516637583" y2="101.16192664675087" /><path d="M 14.007167355692545 101.11028546245083 a86.0,86.0 0 0,1 10.666146001902534,-42.60595125391555" fill="none" id="id46" stroke="none" /><text fill="#e1ed5e" style="font-size:6.75px; font-family:Arial;" text-anchor="middle"><textPath startOffset="22.20632615414155" xlink:href="#id46">October</textPath></text><line stroke="#e1ed5e" stroke-width="0.3" x1="26.266209847984243" x2="21.928928074336255" y1="57.711370442889674" y2="55.22380399835377" /><path d="M 25.398753493254645 57.213857153982495 a86.0,86.0 0 0,1 29.58750427330803,-30.492523968695096" fill="none" id="id47" stroke="none" /><text fill="#e1ed5e" style="font-size:6.75px; font-family:Arial;" text-anchor="middle"><textPath startOffset="21.46611528233685" xlink:href="#id47">November</textPath></text><line stroke="#e1ed5e" stroke-width="0.3" x1="56.76296977257108" x2="54.21961505331056" y1="26.818313649435495" y2="22.513508569990535" /><path d="M 56.25429882871898 25.957352633546506 a86.0,86.0 0 0,1 42.26535254187918,-11.944610805530505" fill="none" id="id48" stroke="none" /><text fill="#e1ed5e" style="font-size:6.75px; font-family:Arial;" text-anchor="middle"><textPath startOffset="22.20632615414155" xlink:href="#id48">December</textPath></text></svg>